<svg width="67" height="68" viewBox="0 0 67 68" fill="none" xmlns="http://www.w3.org/2000/svg">
<path d="M28.6666 49.3332L52.1666 25.8332L47.4999 21.1665L28.6666 39.9998L19.1666 30.4998L14.4999 35.1665L28.6666 49.3332ZM33.3333 67.3332C28.7222 67.3332 24.3888 66.4576 20.3333 64.7065C16.2777 62.9576 12.7499 60.5832 9.74994 57.5832C6.74994 54.5832 4.37549 51.0554 2.62661 46.9998C0.875495 42.9443 -6.10352e-05 38.611 -6.10352e-05 33.9998C-6.10352e-05 29.3887 0.875495 25.0554 2.62661 20.9998C4.37549 16.9443 6.74994 13.4165 9.74994 10.4165C12.7499 7.4165 16.2777 5.04095 20.3333 3.28984C24.3888 1.54095 28.7222 0.666504 33.3333 0.666504C37.9444 0.666504 42.2777 1.54095 46.3333 3.28984C50.3888 5.04095 53.9166 7.4165 56.9166 10.4165C59.9166 13.4165 62.2911 16.9443 64.0399 20.9998C65.7911 25.0554 66.6666 29.3887 66.6666 33.9998C66.6666 38.611 65.7911 42.9443 64.0399 46.9998C62.2911 51.0554 59.9166 54.5832 56.9166 57.5832C53.9166 60.5832 50.3888 62.9576 46.3333 64.7065C42.2777 66.4576 37.9444 67.3332 33.3333 67.3332ZM33.3333 60.6665C40.7777 60.6665 47.0833 58.0832 52.2499 52.9165C57.4166 47.7498 59.9999 41.4443 59.9999 33.9998C59.9999 26.5554 57.4166 20.2498 52.2499 15.0832C47.0833 9.9165 40.7777 7.33317 33.3333 7.33317C25.8888 7.33317 19.5833 9.9165 14.4166 15.0832C9.24994 20.2498 6.66661 26.5554 6.66661 33.9998C6.66661 41.4443 9.24994 47.7498 14.4166 52.9165C19.5833 58.0832 25.8888 60.6665 33.3333 60.6665Z" fill="#14AE5C"/>
</svg>
