<svg width="40" height="40" viewBox="0 0 40 40" fill="none" xmlns="http://www.w3.org/2000/svg">
<path d="M17.3696 33.7679H10.7029C8.5427 33.76 6.79124 32.015 6.77537 29.8548V16.5939C6.77961 15.8708 7.10319 15.1865 7.65943 14.7244L8.83334 13.8548C9.26191 13.3982 9.30549 12.7015 8.93715 12.195C8.56882 11.6885 7.89254 11.5153 7.32609 11.7824L6.12319 12.6809C4.9098 13.6198 4.18973 15.0599 4.16667 16.5939V29.8693C4.17464 33.4759 7.09635 36.3976 10.7029 36.4055H17.3696C18.0899 36.4055 18.6739 35.8216 18.6739 35.1012C18.6739 34.3808 18.0899 33.7968 17.3696 33.7968V33.7679Z" fill="#4C9AB4"/>
<path d="M35.4855 16.5651C35.4703 15.0423 34.7736 13.6065 33.587 12.652L23.5725 4.66654C21.3718 2.89761 18.2369 2.89761 16.0362 4.66654L12.8623 6.97089C12.266 7.39911 12.1298 8.22965 12.558 8.82596C12.9862 9.42227 13.8167 9.55853 14.4131 9.13031L17.6304 6.72451C18.8933 5.68485 20.7154 5.68485 21.9783 6.72451L31.9928 14.71C32.5691 15.1669 32.9097 15.8586 32.9203 16.5941V29.8694C32.9203 32.0306 31.1684 33.7825 29.0073 33.7825H26.0362C25.7321 33.7825 25.4855 33.5359 25.4855 33.2318V27.2463C25.4855 25.3389 23.9436 23.7905 22.0362 23.7825H17.6884C16.7698 23.7825 15.8887 24.1474 15.2392 24.797C14.5896 25.4466 14.2246 26.3276 14.2246 27.2463V29.5361C14.2246 30.2565 14.8086 30.8405 15.529 30.8405C16.2494 30.8405 16.8333 30.2565 16.8333 29.5361V27.2463C16.8295 27.0208 16.9163 26.8033 17.0744 26.6425C17.2324 26.4817 17.4485 26.3911 17.6739 26.3912H22.0217C22.486 26.3912 22.8623 26.7675 22.8623 27.2318V33.2318C22.8703 34.979 24.289 36.3912 26.0362 36.3912H28.9348C32.5447 36.3912 35.471 33.4648 35.471 29.8549L35.4855 16.5651Z" fill="#4C9AB4"/>
</svg>
