<svg width="30" height="34" viewBox="0 0 30 34" fill="none" xmlns="http://www.w3.org/2000/svg">
<path d="M21.3188 0.335031C21.9501 0.374514 22.4371 0.915549 22.4203 1.55862V3.28344C27.4348 3.76993 30 6.54144 30 11.5243V25.3081C30 30.8511 26.8406 33.6668 20.6232 33.6668H9.37681C3.15942 33.6668 0 30.8511 0 25.3081V11.5243C0 8.20729 1.13043 5.83382 3.44928 4.44807L3.61193 4.35537C3.94807 4.19847 4.34233 4.21285 4.67003 4.4031C5.05234 4.62506 5.27811 5.0481 5.25282 5.49513C5.22753 5.94217 4.95555 6.33607 4.55072 6.51195C3.01449 7.42596 2.28986 9.0181 2.28986 11.5243V11.9665H23.4348C24.0671 11.9665 24.5797 12.4879 24.5797 13.1311C24.5797 13.7743 24.0671 14.2958 23.4348 14.2958H2.28986V25.3081C2.28986 29.5391 4.34783 31.2934 9.37681 31.3228H20.6232C25.5797 31.3228 27.6957 29.5243 27.6957 25.2933V11.5095C27.6957 7.824 26.087 6.04021 22.4203 5.61269V6.73309C22.3357 7.33027 21.8217 7.76623 21.229 7.74347C20.6363 7.72072 20.156 7.2466 20.1159 6.64463V1.45543L20.1371 1.27109C20.1843 1.02953 20.306 0.807657 20.4869 0.639184C20.713 0.428594 21.0127 0.319033 21.3188 0.335031ZM21.9783 23.9952L22.1629 24.007C22.4793 24.0467 22.7761 24.1918 23.0052 24.4226C23.2801 24.6995 23.4348 25.0767 23.4348 25.4702C23.4348 26.2844 22.7859 26.9445 21.9855 26.9445C21.1851 26.9445 20.5362 26.2844 20.5362 25.4702C20.5362 24.6561 21.1851 23.996 21.9855 23.996L21.9783 23.9952ZM15.029 23.996L15.2108 24.0075C15.9254 24.0985 16.4783 24.7187 16.4783 25.4702C16.4783 26.2844 15.8294 26.9445 15.029 26.9445C14.2286 26.9445 13.5797 26.2844 13.5797 25.4702C13.5797 24.6561 14.2286 23.996 15.029 23.996ZM8.08 23.9952L8.26431 24.007C8.58076 24.0467 8.87753 24.1918 9.10664 24.4226C9.38157 24.6995 9.53623 25.0767 9.53623 25.4702C9.53623 26.2844 8.88737 26.9445 8.08696 26.9445C7.28654 26.9445 6.63768 26.2844 6.63768 25.4702C6.63768 24.6561 7.28654 23.996 8.08696 23.996L8.08 23.9952ZM21.9783 18.0252L22.1629 18.0365C22.4793 18.0762 22.7761 18.2213 23.0052 18.452C23.2801 18.7289 23.4348 19.1062 23.4348 19.4997C23.4348 20.3139 22.7859 20.9739 21.9855 20.9739C21.1851 20.9739 20.5362 20.3139 20.5362 19.4997C20.5362 18.6855 21.1851 18.0255 21.9855 18.0255L21.9783 18.0252ZM15.029 18.0255L15.2108 18.037C15.9254 18.128 16.4783 18.7482 16.4783 19.4997C16.4783 20.3139 15.8294 20.9739 15.029 20.9739C14.2286 20.9739 13.5797 20.3139 13.5797 19.4997C13.5797 18.6855 14.2286 18.0255 15.029 18.0255ZM8.08 18.0252L8.26431 18.0365C8.58076 18.0762 8.87753 18.2213 9.10664 18.452C9.38157 18.7289 9.53623 19.1062 9.53623 19.4997C9.53623 20.3139 8.88737 20.9739 8.08696 20.9739C7.28654 20.9739 6.63768 20.3139 6.63768 19.4997C6.63768 18.6855 7.28654 18.0255 8.08696 18.0255L8.08 18.0252ZM8.73188 0.510908C9.32213 0.510908 9.81817 0.961973 9.88406 1.55862V3.16551H16.4348C17.0671 3.16551 17.5797 3.68693 17.5797 4.33013C17.5797 4.97333 17.0671 5.49475 16.4348 5.49475H9.85507V6.65938C9.8551 6.97082 9.73248 7.26931 9.51462 7.48814C9.29676 7.70698 9.00181 7.82794 8.69565 7.824L8.52823 7.80727C7.98274 7.7114 7.57231 7.22425 7.57961 6.64463V1.55862L7.61197 1.3843C7.74575 0.876271 8.20066 0.510908 8.73188 0.510908Z" fill="#4C9AB4"/>
</svg>
