<svg width="32" height="34" viewBox="0 0 32 34" fill="none" xmlns="http://www.w3.org/2000/svg">
<path d="M11.2395 31.637V26.5256C11.2395 25.2303 12.2928 24.178 13.5974 24.1699H18.3877C19.6981 24.1699 20.7604 25.2246 20.7604 26.5256V31.6222C20.7604 32.7456 21.6734 33.6586 22.8049 33.6668H26.073C27.5994 33.6707 29.0646 33.0715 30.1453 32.0013C31.226 30.9312 31.8333 29.4781 31.8333 27.9627V13.4432C31.8333 12.2191 31.2868 11.058 30.341 10.2727L19.2383 1.45728C17.2975 -0.0846331 14.5256 -0.0348236 12.6423 1.5758L1.77834 10.2727C0.787891 11.0349 0.19591 12.1994 0.166656 13.4432V27.9479C0.166656 31.1063 2.74563 33.6668 5.92695 33.6668H9.12047C9.66528 33.6707 10.1891 33.4586 10.5758 33.0775C10.9624 32.6965 11.1799 32.1779 11.1799 31.637H11.2395Z" fill="#4C9AB4"/>
</svg>
