<svg width="225" height="64" viewBox="0 0 225 64" fill="none" xmlns="http://www.w3.org/2000/svg">
<path d="M193.944 15.0964C191.999 13.8956 188.438 13.1141 188.438 13.1141L184.693 20.3825C184.693 20.3825 187.69 20.6506 188.878 21.9243C189.772 22.8824 190.2 23.6977 190.2 25.0079C190.2 33.8181 189.759 49.0157 189.759 49.0157H199.45V24.7876C199.45 24.7876 202.622 22.9917 205.177 22.5851C207.046 22.2877 208.14 22.3915 210.023 22.5851C211.768 22.7645 214.428 23.4661 214.428 23.4661L215.309 14.4356C215.309 14.4356 212.582 14.1891 210.463 13.9951C208.577 13.8224 207.468 14.0318 205.618 14.4356C203.807 14.8306 203.076 15.1211 201.433 15.9774C199.888 16.7823 197.468 18.18 197.468 18.18C197.468 18.18 195.5 16.0571 193.944 15.0964Z" fill="#BCE6E2" stroke="#BCE6E2"/>
<path fill-rule="evenodd" clip-rule="evenodd" d="M145.488 13.3343C145.488 13.3343 148.836 14.2646 150.774 15.3166C152.242 16.1135 154.298 17.7394 154.298 17.7394C154.298 17.7394 158.768 14.097 162.227 13.3343C164.831 12.7602 166.456 12.7397 169.055 13.3343C172.435 14.1076 174.391 15.211 176.764 17.7394C179.205 20.3403 179.789 22.5505 180.69 25.9648L180.729 26.1092C181.615 29.4621 181.302 31.6176 180.829 34.8859C180.796 35.1117 180.763 35.3429 180.729 35.5801C180.708 35.7226 180.688 35.8639 180.668 36.0041C180.052 40.3327 179.585 43.6155 176.103 46.3727C172.765 49.0157 170.597 49.4563 167.073 49.6765C162.373 49.9702 156.5 47.0334 156.5 47.0334V62.8918H146.589V24.3471C146.589 23.2458 146.148 22.5851 144.827 21.4838C143.505 20.3825 141.743 20.3825 141.743 20.3825L145.488 13.3343ZM156.28 23.2458C156.28 23.2458 159.183 22.1913 161.126 21.9243C163.171 21.6433 164.71 21.6118 166.632 22.3648C169.073 23.3211 169.826 24.7047 170.597 27.2104C171.478 30.0738 171.424 31.883 170.817 34.9194C170.377 37.1219 169.594 38.6056 167.734 39.9853C166.073 41.2172 164.734 41.4589 162.668 41.5271C160.057 41.6131 156.28 39.5448 156.28 39.5448V23.2458Z" fill="#BCE6E2"/>
<path d="M150.774 15.3166L151.012 14.8772L150.774 15.3166ZM145.488 13.3343L145.622 12.8526L145.235 12.7451L145.046 13.0998L145.488 13.3343ZM154.298 17.7394L153.988 18.1317L154.303 18.3806L154.614 18.1271L154.298 17.7394ZM162.227 13.3343L162.119 12.8461L162.227 13.3343ZM169.055 13.3343L168.944 13.8217V13.8217L169.055 13.3343ZM176.764 17.7394L176.399 18.0816V18.0816L176.764 17.7394ZM180.69 25.9648L180.207 26.0925L180.207 26.0925L180.69 25.9648ZM180.729 26.1092L180.245 26.2369L180.245 26.2369L180.729 26.1092ZM180.829 34.8859L181.324 34.9576V34.9576L180.829 34.8859ZM180.729 35.5801L180.234 35.5094V35.5094L180.729 35.5801ZM180.668 36.0041L181.163 36.0745V36.0745L180.668 36.0041ZM176.103 46.3727L176.414 46.7647L176.103 46.3727ZM167.073 49.6765L167.042 49.1775L167.073 49.6765ZM156.5 47.0334L156.724 46.5862L156 46.2244V47.0334H156.5ZM156.5 62.8918V63.3918H157V62.8918H156.5ZM146.589 62.8918H146.089V63.3918H146.589V62.8918ZM144.827 21.4838L144.507 21.8679L144.827 21.4838ZM141.743 20.3825L141.302 20.1479L140.912 20.8825L141.743 20.8825L141.743 20.3825ZM161.126 21.9243L161.058 21.429H161.058L161.126 21.9243ZM156.28 23.2458L156.11 22.7759L155.78 22.8955V23.2458H156.28ZM166.632 22.3648L166.45 22.8304L166.632 22.3648ZM170.597 27.2104L170.119 27.3575L170.597 27.2104ZM170.817 34.9194L171.307 35.0174V35.0174L170.817 34.9194ZM167.734 39.9853L168.031 40.3869V40.3869L167.734 39.9853ZM162.668 41.5271L162.651 41.0273H162.651L162.668 41.5271ZM156.28 39.5448H155.78V39.841L156.04 39.9833L156.28 39.5448ZM151.012 14.8772C150.004 14.3296 148.648 13.8229 147.564 13.4572C147.018 13.273 146.534 13.1222 146.185 13.0174C146.011 12.9649 145.871 12.9239 145.774 12.8959C145.725 12.8819 145.688 12.8712 145.662 12.8639C145.649 12.8603 145.639 12.8575 145.632 12.8556C145.629 12.8546 145.626 12.8539 145.625 12.8534C145.624 12.8532 145.623 12.853 145.622 12.8528C145.622 12.8528 145.622 12.8527 145.622 12.8527C145.622 12.8526 145.622 12.8526 145.622 12.8526C145.622 12.8526 145.622 12.8526 145.488 13.3343C145.354 13.8161 145.354 13.8161 145.354 13.8161C145.354 13.8161 145.354 13.8161 145.354 13.8161C145.354 13.8161 145.354 13.8161 145.354 13.8162C145.355 13.8163 145.355 13.8164 145.356 13.8166C145.357 13.817 145.359 13.8176 145.362 13.8185C145.368 13.8202 145.378 13.8227 145.39 13.8262C145.414 13.833 145.45 13.8433 145.497 13.8568C145.59 13.8838 145.727 13.9237 145.897 13.9749C146.237 14.0774 146.711 14.2248 147.244 14.4048C148.319 14.7672 149.606 15.2516 150.535 15.756L151.012 14.8772ZM154.298 17.7394C154.608 17.3472 154.608 17.3472 154.608 17.3472C154.608 17.3472 154.608 17.3471 154.608 17.3471C154.608 17.347 154.608 17.3469 154.607 17.3468C154.607 17.3466 154.607 17.3462 154.606 17.3458C154.605 17.3449 154.603 17.3436 154.601 17.342C154.597 17.3387 154.591 17.3339 154.583 17.3277C154.567 17.3152 154.544 17.2969 154.514 17.2735C154.454 17.2267 154.366 17.1591 154.257 17.0757C154.039 16.9089 153.733 16.6782 153.38 16.4222C152.679 15.9138 151.776 15.292 151.012 14.8772L150.535 15.756C151.239 16.1382 152.098 16.7278 152.793 17.2316C153.137 17.4816 153.437 17.7072 153.65 17.8702C153.757 17.9516 153.841 18.0173 153.9 18.0625C153.929 18.0851 153.951 18.1026 153.966 18.1143C153.973 18.1202 153.979 18.1246 153.983 18.1275C153.984 18.129 153.986 18.13 153.987 18.1307C153.987 18.1311 153.987 18.1313 153.988 18.1315C153.988 18.1316 153.988 18.1316 153.988 18.1316C153.988 18.1317 153.988 18.1317 153.988 18.1317C153.988 18.1317 153.988 18.1317 154.298 17.7394ZM162.119 12.8461C160.297 13.248 158.251 14.3925 156.693 15.4035C155.907 15.9138 155.231 16.3996 154.751 16.7578C154.511 16.9371 154.32 17.0847 154.188 17.1879C154.122 17.2395 154.071 17.2801 154.037 17.3079C154.019 17.3218 154.006 17.3326 153.997 17.34C153.992 17.3437 153.989 17.3465 153.986 17.3485C153.985 17.3495 153.984 17.3503 153.983 17.3508C153.983 17.3511 153.983 17.3513 153.982 17.3515C153.982 17.3516 153.982 17.3517 153.982 17.3517C153.982 17.3518 153.982 17.3518 154.298 17.7394C154.614 18.1271 154.614 18.1271 154.614 18.1271C154.614 18.1271 154.614 18.1271 154.614 18.1271C154.614 18.127 154.614 18.1269 154.614 18.1267C154.615 18.1264 154.615 18.1259 154.616 18.1251C154.618 18.1236 154.621 18.1212 154.625 18.118C154.633 18.1115 154.645 18.1017 154.661 18.0888C154.694 18.0629 154.742 18.0245 154.805 17.975C154.931 17.876 155.116 17.7331 155.35 17.559C155.816 17.2105 156.474 16.7379 157.238 16.2423C158.78 15.2414 160.698 14.1834 162.335 13.8226L162.119 12.8461ZM169.167 12.8469C166.491 12.2348 164.791 12.257 162.119 12.8461L162.335 13.8226C164.871 13.2635 166.421 13.2445 168.944 13.8217L169.167 12.8469ZM177.129 17.3973C175.92 16.1089 174.799 15.1648 173.535 14.4443C172.271 13.7241 170.887 13.2405 169.167 12.8469L168.944 13.8217C170.603 14.2014 171.887 14.6562 173.04 15.3131C174.192 15.9698 175.236 16.8415 176.399 18.0816L177.129 17.3973ZM181.174 25.8371C180.271 22.4203 179.663 20.0982 177.129 17.3973L176.399 18.0816C178.746 20.5824 179.306 22.6808 180.207 26.0925L181.174 25.8371ZM181.212 25.9814L181.174 25.8371L180.207 26.0925L180.245 26.2369L181.212 25.9814ZM181.324 34.9576C181.798 31.684 182.126 29.4402 181.212 25.9814L180.245 26.2369C181.103 29.4839 180.807 31.5513 180.334 34.8142L181.324 34.9576ZM181.224 35.6509C181.257 35.4142 181.291 35.1835 181.324 34.9576L180.334 34.8142C180.301 35.04 180.268 35.2716 180.234 35.5094L181.224 35.6509ZM181.163 36.0745C181.183 35.9342 181.203 35.7931 181.224 35.6509L180.234 35.5094C180.213 35.652 180.193 35.7935 180.173 35.9336L181.163 36.0745ZM176.414 46.7647C180.071 43.8691 180.55 40.3861 181.163 36.0745L180.173 35.9336C179.555 40.2793 179.1 43.3618 175.793 45.9807L176.414 46.7647ZM167.104 50.1755C168.876 50.0648 170.353 49.8967 171.816 49.4073C173.285 48.9162 174.712 48.1117 176.414 46.7647L175.793 45.9807C174.156 47.2768 172.83 48.014 171.499 48.459C170.163 48.9056 168.793 49.068 167.042 49.1775L167.104 50.1755ZM156.5 47.0334C156.277 47.4806 156.277 47.4807 156.277 47.4808C156.277 47.4808 156.277 47.4809 156.277 47.4809C156.278 47.4811 156.278 47.4813 156.279 47.4815C156.279 47.482 156.281 47.4826 156.282 47.4834C156.286 47.485 156.29 47.4873 156.296 47.4903C156.309 47.4963 156.326 47.505 156.349 47.5162C156.395 47.5385 156.463 47.5708 156.549 47.6116C156.723 47.6933 156.976 47.8089 157.292 47.9464C157.926 48.2213 158.82 48.5845 159.864 48.9386C161.938 49.6424 164.655 50.3286 167.104 50.1755L167.042 49.1775C164.79 49.3182 162.222 48.6828 160.185 47.9916C159.173 47.6482 158.305 47.2956 157.691 47.029C157.383 46.8958 157.14 46.7843 156.975 46.7065C156.892 46.6676 156.828 46.6371 156.786 46.6166C156.765 46.6063 156.749 46.5985 156.739 46.5934C156.733 46.5908 156.73 46.5889 156.727 46.5877C156.726 46.5871 156.725 46.5867 156.725 46.5865C156.724 46.5863 156.724 46.5863 156.724 46.5862C156.724 46.5862 156.724 46.5862 156.724 46.5862C156.724 46.5862 156.724 46.5862 156.5 47.0334ZM157 62.8918V47.0334H156V62.8918H157ZM146.589 63.3918H156.5V62.3918H146.589V63.3918ZM146.089 24.3471V62.8918H147.089V24.3471H146.089ZM144.507 21.8679C145.159 22.4114 145.548 22.8103 145.78 23.1805C145.998 23.5299 146.089 23.8754 146.089 24.3471H147.089C147.089 23.7175 146.96 23.1821 146.628 22.6505C146.308 22.1396 145.816 21.6575 145.147 21.0997L144.507 21.8679ZM141.743 20.3825C141.743 20.8825 141.743 20.8825 141.743 20.8825C141.743 20.8825 141.743 20.8825 141.743 20.8825C141.743 20.8825 141.743 20.8825 141.742 20.8825C141.742 20.8825 141.742 20.8825 141.742 20.8825C141.742 20.8825 141.743 20.8825 141.743 20.8825C141.745 20.8825 141.748 20.8826 141.753 20.8827C141.763 20.8829 141.779 20.8833 141.8 20.8842C141.844 20.886 141.909 20.8898 141.993 20.8976C142.161 20.9132 142.401 20.9446 142.679 21.0077C143.239 21.1351 143.928 21.3852 144.507 21.8679L145.147 21.0997C144.405 20.4811 143.551 20.1805 142.9 20.0326C142.572 19.9581 142.289 19.9207 142.085 19.9018C141.984 19.8924 141.901 19.8876 141.843 19.8851C141.814 19.8839 141.79 19.8832 141.774 19.8829C141.765 19.8827 141.758 19.8826 141.753 19.8826C141.751 19.8825 141.749 19.8825 141.747 19.8825C141.746 19.8825 141.746 19.8825 141.745 19.8825C141.745 19.8825 141.744 19.8825 141.744 19.8825C141.744 19.8825 141.744 19.8825 141.744 19.8825C141.744 19.8825 141.743 19.8825 141.743 20.3825ZM145.046 13.0998L141.302 20.1479L142.185 20.6171L145.929 13.5689L145.046 13.0998ZM161.058 21.429C160.044 21.5682 158.801 21.9087 157.828 22.2072C157.338 22.3575 156.909 22.4993 156.603 22.6036C156.45 22.6558 156.327 22.6986 156.242 22.7285C156.2 22.7435 156.167 22.7552 156.145 22.7632C156.133 22.7673 156.125 22.7704 156.119 22.7725C156.116 22.7736 156.114 22.7744 156.112 22.7749C156.111 22.7752 156.111 22.7755 156.11 22.7756C156.11 22.7757 156.11 22.7758 156.11 22.7758C156.11 22.7758 156.11 22.7758 156.11 22.7759C156.11 22.7759 156.11 22.7759 156.28 23.2458C156.451 23.7158 156.451 23.7158 156.451 23.7158C156.451 23.7158 156.451 23.7158 156.451 23.7158C156.451 23.7158 156.451 23.7157 156.451 23.7157C156.452 23.7156 156.452 23.7154 156.453 23.7152C156.454 23.7147 156.456 23.714 156.458 23.7131C156.464 23.7112 156.472 23.7084 156.482 23.7046C156.503 23.6971 156.534 23.6859 156.575 23.6715C156.657 23.6427 156.776 23.6011 156.925 23.5502C157.224 23.4484 157.643 23.3099 158.121 23.1632C159.085 22.8676 160.264 22.5474 161.194 22.4196L161.058 21.429ZM166.815 21.8993C164.779 21.1017 163.142 21.1426 161.058 21.429L161.194 22.4196C163.2 22.1439 164.642 22.1219 166.45 22.8304L166.815 21.8993ZM171.075 27.0634C170.686 25.8013 170.285 24.7573 169.639 23.9047C168.983 23.0374 168.101 22.4033 166.815 21.8993L166.45 22.8304C167.604 23.2827 168.32 23.8185 168.842 24.5084C169.376 25.2131 169.736 26.1138 170.119 27.3575L171.075 27.0634ZM171.307 35.0174C171.614 33.4857 171.787 32.2337 171.765 30.9912C171.743 29.744 171.526 28.5285 171.075 27.0634L170.119 27.3575C170.549 28.7557 170.745 29.8765 170.765 31.0088C170.785 32.1459 170.628 33.3166 170.327 34.8213L171.307 35.0174ZM168.031 40.3869C169.006 39.6641 169.716 38.9004 170.238 38.0151C170.759 37.1326 171.08 36.1528 171.307 35.0174L170.327 34.8213C170.113 35.8885 169.823 36.7518 169.377 37.5067C168.933 38.2588 168.321 38.9267 167.436 39.5837L168.031 40.3869ZM162.684 42.0268C164.803 41.9569 166.257 41.7032 168.031 40.3869L167.436 39.5837C165.889 40.7312 164.666 40.9609 162.651 41.0273L162.684 42.0268ZM156.28 39.5448C156.04 39.9833 156.04 39.9834 156.04 39.9834C156.04 39.9834 156.04 39.9835 156.041 39.9835C156.041 39.9837 156.041 39.9838 156.041 39.984C156.042 39.9843 156.043 39.9848 156.044 39.9854C156.046 39.9866 156.049 39.9883 156.053 39.9904C156.061 39.9947 156.073 40.0009 156.088 40.0089C156.117 40.0249 156.161 40.0479 156.217 40.077C156.329 40.1352 156.49 40.2176 156.692 40.316C157.095 40.5126 157.66 40.7738 158.31 41.0327C159.59 41.5426 161.269 42.0735 162.684 42.0268L162.651 41.0273C161.456 41.0667 159.942 40.6064 158.68 40.1037C158.059 39.8562 157.517 39.6058 157.13 39.4172C156.937 39.323 156.783 39.2445 156.678 39.1899C156.626 39.1626 156.586 39.1413 156.559 39.127C156.546 39.1199 156.536 39.1145 156.529 39.111C156.526 39.1092 156.524 39.1079 156.522 39.1071C156.521 39.1067 156.521 39.1065 156.521 39.1063C156.52 39.1062 156.52 39.1062 156.52 39.1062C156.52 39.1062 156.52 39.1062 156.52 39.1062C156.52 39.1062 156.52 39.1062 156.28 39.5448ZM155.78 23.2458V39.5448H156.78V23.2458H155.78Z" fill="#BCE6E2"/>
<path d="M126.766 13.5545C131.139 14.1216 137.338 17.5191 137.338 17.5191L133.814 24.3471C133.814 24.3471 130.623 22.4215 128.308 21.704C125.099 20.7096 123.022 20.1622 119.498 21.0432C118.257 21.3534 117.445 21.7641 117.075 23.4661C116.588 25.7041 118.45 26.1984 120.599 26.9901C124.784 28.5319 128.207 27.5079 132.272 29.8535C134.915 31.3779 136.366 32.5518 137.559 35.3599C138.601 37.8142 138.47 39.682 137.559 42.1878C137.004 43.7129 137.103 44.0652 136.017 45.2714C133.493 48.0755 131.832 48.5752 127.867 49.4562C122.661 50.6131 118.632 50.8539 113.551 49.236C109.952 48.0901 105.181 44.3903 105.181 44.3903L109.366 38.0029C109.366 38.0029 111.04 39.3249 112.229 39.9852C115.549 41.8289 117.736 42.6283 121.48 42.6283C123.251 42.6283 127.501 43.0588 128.308 40.4257C128.585 39.5211 128.611 38.8992 128.308 38.0029C127.655 36.0713 125.919 35.8826 123.903 35.5801C119.498 34.9193 115.048 34.9193 111.789 32.2763C109.249 30.2169 107.457 28.6775 106.943 25.4484C106.514 22.7487 107.003 20.9177 108.485 18.6204C110.716 15.1612 113.771 14.4356 117.736 13.7748C121.134 13.2085 123.35 13.1115 126.766 13.5545Z" fill="#4C9AB4" stroke="#4C9AB4"/>
<path d="M11.1318 1H1L13.7748 49.0157H24.5674L33.1573 14.8761L41.527 49.0157H52.3196L65.7552 1H55.4031L46.8132 36.2409L37.1219 2.54179H28.532L19.7217 36.2409L11.1318 1Z" fill="#4C9AB4" stroke="#4C9AB4"/>
<path fill-rule="evenodd" clip-rule="evenodd" d="M77.2084 34.0383C77.2084 34.0383 83.7805 35.827 88.001 35.3599C88.4748 35.3074 88.9346 35.2622 89.3818 35.2182C92.6855 34.893 95.2951 34.6362 97.6922 32.056C99.6064 29.9957 100.486 28.2598 100.556 25.4484C100.634 22.2529 99.4529 20.2775 97.2517 17.9597C94.4577 15.0176 91.1556 14.1937 87.1199 13.7748C82.3037 13.2749 79.0479 14.1922 75.0059 16.8584C70.5449 19.8009 68.6765 23.0949 67.5172 28.3117C66.4663 33.0408 67.0126 36.3646 69.2792 40.646C71.3882 44.6296 73.6395 46.7973 77.8692 48.355C81.8243 49.8115 84.9134 49.8108 89.3225 49.0157C93.4573 48.2701 99.234 44.8309 99.234 44.8309L95.9302 39.5447C95.9302 39.5447 90.7309 42.6287 87.1199 42.4081C84.0748 42.222 81.9829 41.7275 79.8515 39.5447C78.185 37.8382 77.2084 34.0383 77.2084 34.0383ZM77.4287 28.532C77.4287 28.532 85.5782 29.6332 88.882 28.532C90.1978 28.0934 90.535 26.831 90.6441 25.4484C90.8131 23.3047 89.5244 21.9192 87.5605 21.0433C85.0455 19.9215 82.6495 21.0687 80.5123 22.8053C78.541 24.4071 77.4287 28.532 77.4287 28.532Z" fill="#4C9AB4"/>
<path d="M88.001 35.3599L87.9459 34.8629H87.9459L88.001 35.3599ZM77.2084 34.0383L77.3397 33.5559L76.5102 33.3301L76.7242 34.1628L77.2084 34.0383ZM89.3818 35.2182L89.4308 35.7158L89.3818 35.2182ZM97.6922 32.056L97.3259 31.7157L97.6922 32.056ZM100.556 25.4484L100.056 25.436L100.556 25.4484ZM97.2517 17.9597L96.8891 18.304L97.2517 17.9597ZM87.1199 13.7748L87.0683 14.2722L87.1199 13.7748ZM75.0059 16.8584L74.7306 16.441L75.0059 16.8584ZM67.5172 28.3117L67.0291 28.2032L67.5172 28.3117ZM69.2792 40.646L68.8373 40.88L69.2792 40.646ZM77.8692 48.355L78.042 47.8858L77.8692 48.355ZM89.3225 49.0157L89.4112 49.5078L89.3225 49.0157ZM99.234 44.8309L99.4898 45.2605L99.9288 44.9991L99.658 44.5659L99.234 44.8309ZM95.9302 39.5447L96.3542 39.2797L96.0952 38.8655L95.6751 39.1147L95.9302 39.5447ZM87.1199 42.4081L87.1504 41.909L87.1199 42.4081ZM79.8515 39.5447L79.4938 39.8941L79.8515 39.5447ZM88.882 28.532L89.0401 29.0063L88.882 28.532ZM77.4287 28.532L76.946 28.4018L76.7978 28.9512L77.3618 29.0275L77.4287 28.532ZM90.6441 25.4484L91.1425 25.4877L90.6441 25.4484ZM87.5605 21.0433L87.3568 21.4999L87.5605 21.0433ZM80.5123 22.8053L80.8276 23.1934L80.5123 22.8053ZM87.9459 34.8629C85.9114 35.0881 83.2729 34.7695 81.1102 34.3821C80.0357 34.1897 79.0913 33.9827 78.4157 33.8238C78.0781 33.7444 77.808 33.6771 77.6228 33.6298C77.5302 33.6062 77.4589 33.5876 77.411 33.5749C77.387 33.5686 77.3689 33.5637 77.357 33.5605C77.351 33.5589 77.3465 33.5577 77.3436 33.557C77.3422 33.5566 77.3412 33.5563 77.3405 33.5561C77.3402 33.556 77.3399 33.556 77.3398 33.5559C77.3398 33.5559 77.3397 33.5559 77.3397 33.5559C77.3397 33.5559 77.3397 33.5559 77.2084 34.0383C77.0771 34.5208 77.0772 34.5208 77.0773 34.5208C77.0774 34.5209 77.0775 34.5209 77.0776 34.5209C77.0779 34.521 77.0783 34.5211 77.0788 34.5212C77.0797 34.5215 77.081 34.5219 77.0828 34.5223C77.0862 34.5233 77.0913 34.5246 77.0979 34.5264C77.111 34.5299 77.1304 34.5351 77.1556 34.5417C77.206 34.5551 77.28 34.5744 77.3754 34.5987C77.5661 34.6474 77.8424 34.7163 78.1868 34.7973C78.8754 34.9592 79.8378 35.1701 80.9339 35.3665C83.1123 35.7566 85.8701 36.0988 88.056 35.8568L87.9459 34.8629ZM89.3328 34.7206C88.8861 34.7645 88.4232 34.8101 87.9459 34.8629L88.056 35.8568C88.5263 35.8048 88.9832 35.7598 89.4308 35.7158L89.3328 34.7206ZM97.3259 31.7157C95.0718 34.1419 92.6488 34.3942 89.3328 34.7206L89.4308 35.7158C92.7223 35.3918 95.5183 35.1305 98.0585 32.3964L97.3259 31.7157ZM100.056 25.436C100.022 26.789 99.7951 27.8582 99.3595 28.8292C98.9221 29.8042 98.2623 30.7078 97.3259 31.7157L98.0585 32.3964C99.0363 31.3439 99.7735 30.3494 100.272 29.2385C100.772 28.1237 101.019 26.9192 101.055 25.4607L100.056 25.436ZM96.8891 18.304C97.9744 19.4468 98.779 20.4754 99.3068 21.589C99.8306 22.6943 100.093 23.9083 100.056 25.436L101.055 25.4607C101.097 23.7929 100.808 22.4215 100.21 21.1608C99.6169 19.9084 98.7301 18.7904 97.6143 17.6154L96.8891 18.304ZM87.0683 14.2722C91.0659 14.6871 94.2196 15.493 96.8891 18.304L97.6143 17.6154C94.6958 14.5423 91.2453 13.7003 87.1716 13.2775L87.0683 14.2722ZM75.2812 17.2758C77.2726 15.9622 79.0464 15.0953 80.8985 14.6132C82.749 14.1315 84.7049 14.0269 87.0683 14.2722L87.1716 13.2775C84.7187 13.0229 82.6386 13.1269 80.6466 13.6455C78.6563 14.1636 76.7812 15.0884 74.7306 16.441L75.2812 17.2758ZM68.0053 28.4202C68.5777 25.8441 69.318 23.7773 70.4456 22.0001C71.5708 20.2268 73.0984 18.7156 75.2812 17.2758L74.7306 16.441C72.4524 17.9437 70.8154 19.5508 69.6012 21.4643C68.3896 23.374 67.6159 25.5625 67.0291 28.2032L68.0053 28.4202ZM69.7211 40.4121C68.6052 38.3041 67.9266 36.458 67.6488 34.5738C67.3712 32.691 67.4896 30.7408 68.0053 28.4202L67.0291 28.2032C66.4939 30.6116 66.36 32.6879 66.6595 34.7196C66.9588 36.7499 67.6867 38.7065 68.8373 40.88L69.7211 40.4121ZM78.042 47.8858C75.9728 47.1238 74.4127 46.2222 73.1157 45.0406C71.8168 43.8573 70.7589 42.3724 69.7211 40.4121L68.8373 40.88C69.9085 42.9033 71.0307 44.494 72.4422 45.7798C73.8555 47.0674 75.5359 48.0285 77.6964 48.8242L78.042 47.8858ZM89.2337 48.5237C84.8816 49.3085 81.8884 49.3023 78.042 47.8858L77.6964 48.8242C81.7601 50.3207 84.9451 50.3132 89.4112 49.5078L89.2337 48.5237ZM99.234 44.8309C98.9782 44.4012 98.9782 44.4012 98.9782 44.4012C98.9782 44.4012 98.9782 44.4013 98.9781 44.4013C98.978 44.4014 98.9778 44.4015 98.9775 44.4017C98.977 44.402 98.976 44.4025 98.9748 44.4033C98.9722 44.4048 98.9683 44.4071 98.963 44.4102C98.9525 44.4165 98.9365 44.4259 98.9154 44.4382C98.8732 44.463 98.8102 44.4996 98.7284 44.5467C98.5647 44.6408 98.3256 44.7766 98.0254 44.942C97.4249 45.273 96.5814 45.7221 95.6103 46.194C93.6561 47.1436 91.2298 48.1637 89.2337 48.5237L89.4112 49.5078C91.55 49.1221 94.0794 48.0498 96.0474 47.0934C97.0373 46.6123 97.8964 46.155 98.5081 45.8178C98.8141 45.6491 99.0586 45.5104 99.227 45.4135C99.3112 45.3651 99.3764 45.3271 99.4208 45.3011C99.443 45.2881 99.46 45.2781 99.4716 45.2713C99.4774 45.2679 99.4818 45.2652 99.4848 45.2634C99.4864 45.2625 99.4875 45.2618 99.4884 45.2613C99.4888 45.2611 99.4891 45.2609 99.4893 45.2608C99.4894 45.2607 99.4896 45.2606 99.4896 45.2606C99.4897 45.2605 99.4898 45.2605 99.234 44.8309ZM95.5062 39.8097L98.81 45.0959L99.658 44.5659L96.3542 39.2797L95.5062 39.8097ZM87.0894 42.9071C89.0191 43.0251 91.314 42.2668 93.0746 41.5194C93.9658 41.1411 94.7412 40.7561 95.2939 40.4658C95.5705 40.3205 95.7919 40.1986 95.9448 40.1127C96.0212 40.0697 96.0806 40.0356 96.1212 40.0121C96.1415 40.0004 96.1572 39.9913 96.1679 39.985C96.1733 39.9818 96.1774 39.9794 96.1803 39.9777C96.1818 39.9768 96.1829 39.9762 96.1837 39.9757C96.1841 39.9754 96.1845 39.9752 96.1847 39.9751C96.1849 39.975 96.185 39.9749 96.185 39.9749C96.1852 39.9748 96.1852 39.9748 95.9302 39.5447C95.6751 39.1147 95.6751 39.1147 95.6752 39.1147C95.6751 39.1147 95.6752 39.1147 95.6751 39.1147C95.6751 39.1147 95.6749 39.1148 95.6747 39.1149C95.6743 39.1152 95.6735 39.1156 95.6724 39.1163C95.6703 39.1175 95.6669 39.1195 95.6624 39.1222C95.6532 39.1275 95.6392 39.1357 95.6206 39.1465C95.5833 39.1681 95.5274 39.2001 95.4547 39.241C95.3091 39.3228 95.0961 39.4401 94.8288 39.5805C94.2938 39.8616 93.5438 40.2338 92.6838 40.5989C90.942 41.3384 88.8317 42.0117 87.1504 41.909L87.0894 42.9071ZM79.4938 39.8941C80.6079 41.035 81.727 41.7483 82.9743 42.1958C84.2115 42.6396 85.552 42.8132 87.0894 42.9071L87.1504 41.909C85.6427 41.8168 84.4147 41.6501 83.3119 41.2545C82.2191 40.8625 81.2266 40.2372 80.2092 39.1954L79.4938 39.8941ZM77.2084 34.0383C76.7242 34.1628 76.7242 34.1629 76.7242 34.163C76.7242 34.163 76.7243 34.1632 76.7243 34.1633C76.7243 34.1635 76.7244 34.1637 76.7245 34.1641C76.7247 34.1647 76.7249 34.1656 76.7252 34.1667C76.7258 34.169 76.7266 34.1721 76.7276 34.1761C76.7297 34.1841 76.7328 34.1957 76.7368 34.2107C76.7448 34.2406 76.7566 34.284 76.7721 34.3395C76.8031 34.4504 76.8489 34.6096 76.9091 34.8055C77.0293 35.197 77.2074 35.7372 77.439 36.3328C77.895 37.5052 78.5853 38.9638 79.4938 39.8941L80.2092 39.1954C79.4512 38.4191 78.82 37.1245 78.371 35.9703C78.1502 35.4027 77.98 34.8863 77.865 34.5119C77.8076 34.325 77.7641 34.174 77.7352 34.0704C77.7207 34.0186 77.7099 33.9787 77.7028 33.9522C77.6993 33.9389 77.6966 33.9289 77.6949 33.9225C77.6941 33.9193 77.6935 33.9169 77.6931 33.9155C77.6929 33.9148 77.6928 33.9143 77.6927 33.914C77.6927 33.9139 77.6927 33.9138 77.6927 33.9138C77.6927 33.9138 77.6927 33.9138 77.6927 33.9138C77.6927 33.9138 77.6927 33.9139 77.2084 34.0383ZM88.7239 28.0576C87.9656 28.3104 86.893 28.4459 85.6776 28.497C84.4712 28.5477 83.1605 28.514 81.9445 28.4457C80.7296 28.3775 79.6162 28.275 78.8062 28.1896C78.4013 28.1469 78.0728 28.1085 77.8459 28.0808C77.7324 28.067 77.6444 28.0558 77.585 28.0482C77.5553 28.0443 77.5327 28.0414 77.5177 28.0394C77.5102 28.0384 77.5046 28.0377 77.5009 28.0372C77.499 28.0369 77.4977 28.0367 77.4968 28.0366C77.4964 28.0366 77.4961 28.0365 77.4959 28.0365C77.4958 28.0365 77.4957 28.0365 77.4957 28.0365C77.4957 28.0365 77.4957 28.0365 77.4287 28.532C77.3618 29.0275 77.3618 29.0275 77.3619 29.0275C77.362 29.0275 77.3622 29.0275 77.3623 29.0275C77.3626 29.0276 77.3631 29.0276 77.3636 29.0277C77.3647 29.0279 77.3663 29.0281 77.3684 29.0283C77.3726 29.0289 77.3787 29.0297 77.3867 29.0308C77.4028 29.0329 77.4264 29.036 77.4571 29.04C77.5187 29.0479 77.609 29.0593 77.7248 29.0735C77.9565 29.1017 78.2904 29.1407 78.7012 29.1841C79.5225 29.2707 80.6529 29.3747 81.8884 29.4441C83.1227 29.5135 84.4688 29.5487 85.7196 29.4961C86.9615 29.4439 88.1466 29.3042 89.0401 29.0063L88.7239 28.0576ZM90.1456 25.4091C90.0369 26.7882 89.7142 27.7275 88.7239 28.0576L89.0401 29.0063C90.6814 28.4592 91.0332 26.8739 91.1425 25.4877L90.1456 25.4091ZM87.3568 21.4999C88.2911 21.9166 89.024 22.4372 89.5031 23.0717C89.974 23.6954 90.2208 24.4559 90.1456 25.4091L91.1425 25.4877C91.2364 24.2972 90.9233 23.2931 90.3011 22.4691C89.6872 21.656 88.7937 21.0459 87.7642 20.5866L87.3568 21.4999ZM80.8276 23.1934C82.9336 21.4821 85.1167 20.5007 87.3568 21.4999L87.7642 20.5866C84.9743 19.3422 82.3654 20.6552 80.197 22.4173L80.8276 23.1934ZM77.4287 28.532C77.9115 28.6621 77.9115 28.6622 77.9114 28.6623C77.9114 28.6623 77.9114 28.6623 77.9114 28.6623C77.9114 28.6623 77.9115 28.6622 77.9115 28.662C77.9116 28.6618 77.9117 28.6612 77.9119 28.6605C77.9124 28.6589 77.913 28.6564 77.914 28.6529C77.9159 28.646 77.9189 28.6353 77.9229 28.6209C77.931 28.5922 77.9434 28.5492 77.9599 28.4933C77.9929 28.3816 78.0426 28.219 78.1084 28.0183C78.2403 27.6164 78.436 27.0647 78.6913 26.4652C79.2118 25.2432 79.9437 23.9116 80.8276 23.1934L80.197 22.4173C79.1097 23.3008 78.2998 24.8326 77.7713 26.0734C77.5021 26.7054 77.2966 27.285 77.1582 27.7066C77.089 27.9176 77.0364 28.0897 77.0009 28.2099C76.9831 28.2699 76.9696 28.317 76.9605 28.3496C76.9559 28.3658 76.9524 28.3784 76.95 28.3872C76.9487 28.3916 76.9478 28.395 76.9471 28.3975C76.9468 28.3987 76.9465 28.3996 76.9464 28.4004C76.9463 28.4007 76.9462 28.401 76.9461 28.4013C76.9461 28.4014 76.946 28.4015 76.946 28.4016C76.946 28.4017 76.946 28.4018 77.4287 28.532Z" fill="#4C9AB4"/>
<ellipse cx="219.053" cy="44.3904" rx="5.9469" ry="5.50639" fill="#4C9AB4"/>
</svg>
